<?xml version="1.0" standalone="no"?>
<!DOCTYPE svg PUBLIC "-//W3C//DTD SVG 20010904//EN"
 "http://www.w3.org/TR/2001/REC-SVG-20010904/DTD/svg10.dtd">
<svg version="1.0" xmlns="http://www.w3.org/2000/svg" viewBox="0 0 407.000000 409.000000"
 preserveAspectRatio="xMidYMid meet">

<g transform="translate(0.000000,409.000000) scale(0.100000,-0.100000)"
fill="#000000" stroke="none">
<path d="M495 4012 c-110 -37 -185 -84 -260 -164 -78 -82 -109 -134 -147 -246
l-30 -87 -1 -1455 -2 -1455 33 -89 c35 -95 99 -201 154 -252 90 -86 221 -151
337 -170 23 -4 44 -11 47 -15 7 -12 2799 -12 2822 0 9 5 48 16 85 25 223 51
397 222 464 457 17 61 18 141 18 1504 0 1352 -1 1444 -18 1505 -23 84 -50 140
-103 215 -76 108 -176 180 -310 225 l-88 30 -1460 0 -1461 0 -80 -28z m3032
-218 c78 -32 145 -86 192 -155 76 -111 72 -8 69 -1600 l-3 -1425 -35 -70 c-45
-89 -108 -152 -195 -195 l-70 -34 -1450 0 -1450 0 -65 31 c-83 40 -161 118
-203 203 l-32 66 1 1445 2 1445 30 66 c58 130 179 224 307 242 17 2 665 4
1440 3 l1410 -1 52 -21z"/>
<path d="M690 2856 l0 -566 125 0 126 0 -2 168 -1 167 289 5 c322 6 375 15
486 76 178 99 244 294 158 469 -38 77 -73 113 -153 160 -125 74 -153 78 -615
82 l-413 5 0 -566z m825 368 c64 -31 91 -52 121 -95 23 -34 28 -51 28 -102 0
-37 -7 -74 -17 -93 -21 -41 -90 -102 -124 -110 -16 -3 -41 -10 -57 -15 -16 -5
-143 -9 -282 -9 l-254 0 0 218 c0 120 3 222 8 226 4 4 126 6 272 4 237 -4 269
-6 305 -24z"/>
<path d="M2020 3412 c0 -4 14 -30 32 -58 17 -27 50 -80 73 -119 23 -38 79
-131 125 -205 45 -74 123 -202 173 -285 50 -82 105 -171 124 -197 18 -26 33
-52 33 -57 0 -9 -60 -120 -98 -181 -12 -19 -22 -38 -22 -42 0 -5 60 -8 133 -8
l133 0 52 93 c29 50 65 115 81 142 15 28 84 149 153 270 69 121 180 316 247
433 66 118 121 215 121 218 0 2 -60 4 -134 4 l-133 0 -83 -147 c-46 -82 -118
-206 -159 -278 -41 -71 -84 -148 -96 -170 -33 -60 -49 -85 -56 -85 -4 0 -33
44 -64 98 -32 53 -72 120 -90 147 -18 28 -45 73 -61 100 -15 28 -52 87 -81
133 -29 45 -53 85 -53 88 0 3 -16 29 -35 59 l-35 55 -140 0 c-77 0 -140 -4
-140 -8z"/>
<path d="M2210 1773 c0 -104 -3 -367 -7 -585 l-6 -398 469 0 469 0 0 -117 0
-118 123 -3 122 -3 0 231 0 230 -85 0 -85 0 -2 473 -3 472 -117 3 -118 3 -2
-473 -3 -473 -260 0 -260 0 -3 473 -2 472 -115 0 -115 0 0 -187z"/>
<path d="M690 1370 l0 -581 116 3 115 3 -1 358 c0 196 3 357 7 357 5 0 19 -16
33 -34 14 -19 59 -73 100 -122 41 -48 98 -115 126 -148 29 -34 66 -77 82 -96
l31 -35 48 54 c26 30 59 69 73 87 14 17 59 71 100 119 41 48 90 106 108 129
19 23 38 43 43 44 5 2 9 -140 9 -357 l0 -361 115 0 115 0 0 580 0 580 -60 0
c-69 0 -57 9 -211 -176 -248 -298 -331 -394 -338 -394 -8 0 -217 236 -286 325
-49 62 -117 143 -169 202 -37 41 -41 43 -97 43 l-59 0 0 -580z"/>
</g>
</svg>
